<mxfile host="65bd71144e">
    <diagram id="yu4sUhZ2xTTaIuJuXNlr" name="Dashboard">
        <mxGraphModel dx="1691" dy="969" grid="0" gridSize="10" guides="1" tooltips="1" connect="1" arrows="1" fold="1" page="0" pageScale="1" pageWidth="1169" pageHeight="827" math="0" shadow="0">
            <root>
                <mxCell id="0"/>
                <mxCell id="1" parent="0"/>
                <mxCell id="2" value="&lt;font style=&quot;font-size: 18px&quot;&gt;HEADER&lt;/font&gt;" style="rounded=1;whiteSpace=wrap;html=1;fillColor=#0050ef;strokeColor=#001DBC;fontColor=#ffffff;gradientColor=#ffffff;" parent="1" vertex="1">
                    <mxGeometry width="800" height="70" as="geometry"/>
                </mxCell>
                <mxCell id="105" value="FOOTER" style="rounded=1;whiteSpace=wrap;html=1;fontSize=18;fillColor=#0050ef;fontColor=#ffffff;strokeColor=#001DBC;gradientColor=#ffffff;" parent="1" vertex="1">
                    <mxGeometry y="900" width="800" height="60" as="geometry"/>
                </mxCell>
                <mxCell id="121" value="MACHINE INFORMATION" style="swimlane;fontStyle=0;childLayout=stackLayout;horizontal=1;startSize=30;horizontalStack=0;resizeParent=1;resizeParentMax=0;resizeLast=0;collapsible=1;marginBottom=0;fontSize=12;rounded=1;" parent="1" vertex="1">
                    <mxGeometry x="160" y="110" width="640" height="108" as="geometry"/>
                </mxCell>
                <mxCell id="122" value="Machine Give Name" style="text;strokeColor=none;fillColor=default;align=left;verticalAlign=top;spacingLeft=4;spacingRight=4;overflow=hidden;rotatable=0;points=[[0,0.5],[1,0.5]];portConstraint=eastwest;fontSize=12;rounded=1;gradientColor=none;" parent="121" vertex="1">
                    <mxGeometry y="30" width="640" height="26" as="geometry"/>
                </mxCell>
                <mxCell id="123" value="Machine Id" style="text;strokeColor=none;fillColor=default;align=left;verticalAlign=top;spacingLeft=4;spacingRight=4;overflow=hidden;rotatable=0;points=[[0,0.5],[1,0.5]];portConstraint=eastwest;fontSize=12;rounded=1;" parent="121" vertex="1">
                    <mxGeometry y="56" width="640" height="26" as="geometry"/>
                </mxCell>
                <mxCell id="124" value="Machine Operational Manual;" style="text;strokeColor=none;fillColor=default;align=left;verticalAlign=top;spacingLeft=4;spacingRight=4;overflow=hidden;rotatable=0;points=[[0,0.5],[1,0.5]];portConstraint=eastwest;fontSize=12;rounded=1;" parent="121" vertex="1">
                    <mxGeometry y="82" width="640" height="26" as="geometry"/>
                </mxCell>
                <mxCell id="128" value="" style="html=1;verticalLabelPosition=bottom;align=center;labelBackgroundColor=#ffffff;verticalAlign=top;strokeWidth=2;strokeColor=#0080F0;shadow=0;dashed=0;shape=mxgraph.ios7.icons.page_navigation;pointerEvents=1;fontSize=12;rounded=1;" parent="1" vertex="1">
                    <mxGeometry x="10" y="20" width="30" height="30" as="geometry"/>
                </mxCell>
                <mxCell id="130" value="" style="html=1;verticalLabelPosition=bottom;align=center;labelBackgroundColor=#ffffff;verticalAlign=top;strokeWidth=2;strokeColor=#0080F0;shadow=0;dashed=0;shape=mxgraph.ios7.icons.controls;fontSize=12;gradientColor=none;rounded=1;" parent="1" vertex="1">
                    <mxGeometry x="650" y="80" width="27" height="24" as="geometry"/>
                </mxCell>
                <mxCell id="131" value="" style="html=1;verticalLabelPosition=bottom;align=center;labelBackgroundColor=#ffffff;verticalAlign=top;strokeWidth=2;strokeColor=#0080F0;shadow=0;dashed=0;shape=mxgraph.ios7.icons.compose;fontSize=12;rounded=1;" parent="1" vertex="1">
                    <mxGeometry x="690" y="74.9" width="29.099999999999998" height="29.099999999999998" as="geometry"/>
                </mxCell>
                <mxCell id="132" value="" style="html=1;verticalLabelPosition=bottom;align=center;labelBackgroundColor=#ffffff;verticalAlign=top;strokeWidth=2;strokeColor=#0080F0;shadow=0;dashed=0;shape=mxgraph.ios7.icons.share;fontSize=12;rounded=1;" parent="1" vertex="1">
                    <mxGeometry x="730" y="74.9" width="21" height="28.5" as="geometry"/>
                </mxCell>
                <mxCell id="133" value="" style="html=1;verticalLabelPosition=bottom;align=center;labelBackgroundColor=#ffffff;verticalAlign=top;strokeWidth=2;strokeColor=#0080F0;shadow=0;dashed=0;shape=mxgraph.ios7.icons.up;fontSize=12;rounded=1;" parent="1" vertex="1">
                    <mxGeometry x="760" y="80" width="21" height="25.5" as="geometry"/>
                </mxCell>
                <mxCell id="134" value="" style="strokeWidth=1;shadow=0;dashed=0;align=center;html=1;shape=mxgraph.mockup.containers.rrect;rSize=0;fontSize=12;rounded=1;" parent="1" vertex="1">
                    <mxGeometry y="80" width="150" height="820" as="geometry"/>
                </mxCell>
                <mxCell id="135" value="&lt;font style=&quot;font-size: 19px&quot; color=&quot;#3399ff&quot;&gt;&lt;u&gt;&lt;i&gt;Dashboard&lt;/i&gt;&lt;/u&gt;&lt;/font&gt;" style="strokeColor=inherit;fillColor=inherit;gradientColor=inherit;strokeWidth=1;shadow=0;dashed=0;align=center;html=1;shape=mxgraph.mockup.containers.rrect;rSize=0;fontSize=17;fontColor=#666666;fontStyle=1;resizeWidth=1;rounded=1;" parent="134" vertex="1">
                    <mxGeometry width="150" height="26" relative="1" as="geometry"/>
                </mxCell>
                <mxCell id="136" value="" style="strokeColor=inherit;fillColor=inherit;gradientColor=inherit;strokeWidth=1;shadow=0;dashed=0;align=center;html=1;shape=mxgraph.mockup.containers.rrect;rSize=0;fontSize=17;fontColor=#666666;fontStyle=1;resizeWidth=1;rounded=1;" parent="134" vertex="1">
                    <mxGeometry width="150" height="26" relative="1" as="geometry">
                        <mxPoint y="26" as="offset"/>
                    </mxGeometry>
                </mxCell>
                <mxCell id="137" value="&lt;font color=&quot;#ff6666&quot;&gt;Resource Manager&lt;/font&gt;" style="strokeWidth=1;shadow=0;dashed=0;align=center;html=1;shape=mxgraph.mockup.containers.rrect;rSize=0;fontSize=13;fontStyle=0;resizeWidth=1;verticalAlign=middle;rounded=1;" parent="134" vertex="1">
                    <mxGeometry width="150" height="26" relative="1" as="geometry">
                        <mxPoint y="52" as="offset"/>
                    </mxGeometry>
                </mxCell>
                <mxCell id="138" value="" style="strokeColor=inherit;fillColor=inherit;gradientColor=inherit;strokeWidth=1;shadow=0;dashed=0;align=center;html=1;shape=mxgraph.mockup.containers.rrect;rSize=0;fontSize=17;fontColor=#666666;fontStyle=1;resizeWidth=1;rounded=1;" parent="134" vertex="1">
                    <mxGeometry y="1" width="150" height="26" relative="1" as="geometry">
                        <mxPoint y="-26" as="offset"/>
                    </mxGeometry>
                </mxCell>
                <mxCell id="141" value="" style="verticalLabelPosition=bottom;shadow=0;dashed=0;align=center;html=1;verticalAlign=top;strokeWidth=1;shape=mxgraph.mockup.graphics.lineChart;strokeColor2=#666666;strokeColor3=#008cff;strokeColor4=#dddddd;fontSize=19;direction=east;noLabel=0;metaEdit=0;fillColor=#fff2cc;gradientColor=#999999;strokeColor=#d6b656;rounded=1;" parent="1" vertex="1">
                    <mxGeometry x="160" y="230" width="320" height="200" as="geometry"/>
                </mxCell>
                <mxCell id="147" value="" style="verticalLabelPosition=bottom;shadow=0;dashed=0;align=center;html=1;verticalAlign=top;strokeWidth=1;shape=mxgraph.mockup.graphics.lineChart;strokeColor2=#666666;strokeColor3=#008cff;strokeColor4=#dddddd;fontSize=19;fillColor=#fff2cc;gradientColor=#999999;strokeColor=#d6b656;rounded=1;" parent="1" vertex="1">
                    <mxGeometry x="480" y="230" width="320" height="200" as="geometry"/>
                </mxCell>
                <mxCell id="148" value="" style="verticalLabelPosition=bottom;shadow=0;dashed=0;align=center;html=1;verticalAlign=top;strokeWidth=1;shape=mxgraph.mockup.graphics.lineChart;strokeColor2=#666666;strokeColor3=#008cff;strokeColor4=#dddddd;fontSize=19;fillColor=#fff2cc;gradientColor=#999999;strokeColor=#d6b656;rounded=1;" parent="1" vertex="1">
                    <mxGeometry x="160" y="440" width="320" height="200" as="geometry"/>
                </mxCell>
                <mxCell id="149" value="" style="verticalLabelPosition=bottom;shadow=0;dashed=0;align=center;html=1;verticalAlign=top;strokeWidth=1;shape=mxgraph.mockup.graphics.lineChart;strokeColor2=#666666;strokeColor3=#008cff;strokeColor4=#dddddd;fontSize=19;fillColor=#fff2cc;gradientColor=#999999;strokeColor=#d6b656;rounded=1;" parent="1" vertex="1">
                    <mxGeometry x="480" y="440" width="320" height="200" as="geometry"/>
                </mxCell>
                <mxCell id="150" value="&lt;table cellpadding=&quot;4&quot; cellspacing=&quot;0&quot; border=&quot;1&quot; style=&quot;font-size: 1em ; width: 100% ; height: 100%&quot;&gt;&lt;tbody&gt;&lt;tr&gt;&lt;th&gt;&lt;/th&gt;&lt;th&gt;MACHINE&amp;nbsp;&lt;/th&gt;&lt;/tr&gt;&lt;tr&gt;&lt;td&gt;TIMESTAMP&lt;/td&gt;&lt;td&gt;ERROR / INFO&lt;/td&gt;&lt;/tr&gt;&lt;tr&gt;&lt;td&gt;&lt;/td&gt;&lt;td&gt;&lt;br&gt;&lt;/td&gt;&lt;/tr&gt;&lt;/tbody&gt;&lt;/table&gt; " style="verticalAlign=top;align=left;overflow=fill;fontSize=12;fontFamily=Helvetica;html=1;shadow=0;rounded=1;" parent="1" vertex="1">
                    <mxGeometry x="160" y="650" width="320" height="110" as="geometry"/>
                </mxCell>
                <mxCell id="151" value="&lt;table cellpadding=&quot;4&quot; cellspacing=&quot;0&quot; border=&quot;1&quot; style=&quot;font-size: 1em ; width: 100% ; height: 100%&quot;&gt;&lt;tbody&gt;&lt;tr&gt;&lt;th&gt;LOGS&lt;/th&gt;&lt;th&gt;&lt;/th&gt;&lt;/tr&gt;&lt;tr&gt;&lt;td&gt;ERROR CODE&lt;/td&gt;&lt;td&gt;MESSAGE&lt;/td&gt;&lt;/tr&gt;&lt;tr&gt;&lt;td&gt;&lt;/td&gt;&lt;td&gt;&lt;br&gt;&lt;/td&gt;&lt;/tr&gt;&lt;/tbody&gt;&lt;/table&gt; " style="verticalAlign=top;align=left;overflow=fill;fontSize=12;fontFamily=Helvetica;html=1;shadow=0;rounded=1;" parent="1" vertex="1">
                    <mxGeometry x="480" y="650" width="320" height="110" as="geometry"/>
                </mxCell>
                <mxCell id="152" value="&lt;table cellpadding=&quot;4&quot; cellspacing=&quot;0&quot; border=&quot;1&quot; style=&quot;font-size: 1em ; width: 100% ; height: 100%&quot;&gt;&lt;tbody&gt;&lt;tr&gt;&lt;th&gt;&lt;/th&gt;&lt;th&gt;MACHINE&lt;/th&gt;&lt;/tr&gt;&lt;tr&gt;&lt;td&gt;TIMESTAMP&lt;/td&gt;&lt;td&gt;CYCLE&lt;/td&gt;&lt;/tr&gt;&lt;tr&gt;&lt;td&gt;&lt;/td&gt;&lt;td&gt;&lt;br&gt;&lt;/td&gt;&lt;/tr&gt;&lt;/tbody&gt;&lt;/table&gt; " style="verticalAlign=top;align=left;overflow=fill;fontSize=12;fontFamily=Helvetica;html=1;shadow=0;rounded=1;" parent="1" vertex="1">
                    <mxGeometry x="160" y="770" width="320" height="130" as="geometry"/>
                </mxCell>
                <mxCell id="153" value="&lt;table cellpadding=&quot;4&quot; cellspacing=&quot;0&quot; border=&quot;1&quot; style=&quot;font-size: 1em ; width: 100% ; height: 100%&quot;&gt;&lt;tbody&gt;&lt;tr&gt;&lt;th&gt;CLASSIFIER TRIGGER&lt;/th&gt;&lt;th&gt;&lt;/th&gt;&lt;/tr&gt;&lt;tr&gt;&lt;td&gt;AVERAGE SPEED&lt;/td&gt;&lt;td&gt;&amp;nbsp; &amp;nbsp; &amp;nbsp; &amp;nbsp; &amp;nbsp; &amp;nbsp; &amp;nbsp; &amp;nbsp; &amp;nbsp; &amp;nbsp; &amp;nbsp;&amp;nbsp;&lt;span style=&quot;white-space: pre&quot;&gt;&#9;&lt;/span&gt;&lt;span style=&quot;white-space: pre&quot;&gt;&#9;&lt;/span&gt;&lt;span style=&quot;white-space: pre&quot;&gt;&#9;&lt;/span&gt;&lt;/td&gt;&lt;/tr&gt;&lt;tr&gt;&lt;td&gt;&lt;/td&gt;&lt;td&gt;&lt;br&gt;&lt;/td&gt;&lt;/tr&gt;&lt;/tbody&gt;&lt;/table&gt; " style="verticalAlign=top;align=left;overflow=fill;fontSize=12;fontFamily=Helvetica;html=1;shadow=0;imageAspect=1;rounded=1;" parent="1" vertex="1">
                    <mxGeometry x="481" y="770" width="319" height="130" as="geometry"/>
                </mxCell>
                <mxCell id="157" value="" style="html=1;verticalLabelPosition=bottom;align=center;labelBackgroundColor=#ffffff;verticalAlign=top;strokeWidth=2;strokeColor=#0080F0;shadow=0;dashed=0;shape=mxgraph.ios7.icons.play;fontSize=19;fontColor=#3399FF;fillColor=default;gradientColor=none;rounded=1;" parent="1" vertex="1">
                    <mxGeometry x="677" y="823" width="20" height="24" as="geometry"/>
                </mxCell>
                <mxCell id="160" value="Machine Logs" style="whiteSpace=wrap;html=1;shape=mxgraph.basic.oval_callout;fillColor=#e3c800;fontColor=#000000;strokeColor=#B09500;" vertex="1" parent="1">
                    <mxGeometry x="719.1" y="578" width="184" height="109" as="geometry"/>
                </mxCell>
                <mxCell id="161" value="Machine Prediction Classifier Trigger" style="whiteSpace=wrap;html=1;shape=mxgraph.basic.oval_callout;fillColor=#e3c800;fontColor=#000000;strokeColor=#B09500;" vertex="1" parent="1">
                    <mxGeometry x="708" y="727" width="184" height="109" as="geometry"/>
                </mxCell>
                <mxCell id="162" value="Machine Vitals (Speed, Pressure, Temp etc) represented as graphs" style="whiteSpace=wrap;html=1;shape=mxgraph.basic.oval_callout;fillColor=#e3c800;fontColor=#000000;strokeColor=#B09500;" vertex="1" parent="1">
                    <mxGeometry x="719.1" y="218" width="169" height="122" as="geometry"/>
                </mxCell>
                <mxCell id="163" value="Machine Synopsis" style="whiteSpace=wrap;html=1;shape=mxgraph.basic.oval_callout;fillColor=#e3c800;fontColor=#000000;strokeColor=#B09500;" vertex="1" parent="1">
                    <mxGeometry x="753" y="100" width="171" height="87" as="geometry"/>
                </mxCell>
                <mxCell id="164" value="App Navigation&amp;nbsp;" style="whiteSpace=wrap;html=1;shape=mxgraph.basic.oval_callout;fillColor=#e3c800;fontColor=#000000;strokeColor=#B09500;flipH=1;" vertex="1" parent="1">
                    <mxGeometry x="-136" y="55" width="171" height="87" as="geometry"/>
                </mxCell>
                <mxCell id="165" value="Information Export Actions" style="whiteSpace=wrap;html=1;shape=mxgraph.basic.oval_callout;fillColor=#e3c800;fontColor=#000000;strokeColor=#B09500;" vertex="1" parent="1">
                    <mxGeometry x="714.5" y="5" width="171" height="87" as="geometry"/>
                </mxCell>
            </root>
        </mxGraphModel>
    </diagram>
</mxfile>
